inDegrees=no
num_controls=7
num_derivatives=13
num_iterations=286
num_multipliers=7
num_parameters=0
num_slacks=7
num_states=26
objective=0.345701
objective_accelerations=0.000000
objective_balance=0.002724
objective_effort=0.092140
objective_height=0.220087
objective_ligament=0.030751
solver_duration=4000.519559
status=Solve_Succeeded
success=true
DataType=double
version=3
OpenSimVersion=4.5
endheader
time	/jointset/ground_pelvis/pelvis_tilt/value	/jointset/ground_pelvis/pelvis_tx/value	/jointset/ground_pelvis/pelvis_ty/value	/jointset/hip_l/hip_flexion_l/value	/jointset/hip_l/hip_adduction_l/value	/jointset/hip_l/hip_rotation_l/value	/jointset/back/lumbar_extension/value	/jointset/patellofemoral_l/patellar_flexion_l/value	/jointset/knee_l/knee_flexion_l/value	/jointset/knee_l/knee_adduction_l/value	/jointset/knee_l/knee_rotation_l/value	/jointset/ankle_l/ankle_angle_l/value	/jointset/subtalar_l/subtalar_angle_l/value	/jointset/ground_pelvis/pelvis_tilt/speed	/jointset/ground_pelvis/pelvis_tx/speed	/jointset/ground_pelvis/pelvis_ty/speed	/jointset/hip_l/hip_flexion_l/speed	/jointset/hip_l/hip_adduction_l/speed	/jointset/hip_l/hip_rotation_l/speed	/jointset/back/lumbar_extension/speed	/jointset/patellofemoral_l/patellar_flexion_l/speed	/jointset/knee_l/knee_flexion_l/speed	/jointset/knee_l/knee_adduction_l/speed	/jointset/knee_l/knee_rotation_l/speed	/jointset/ankle_l/ankle_angle_l/speed	/jointset/subtalar_l/subtalar_angle_l/speed	/forceset/tau_hip_flexion_l	/forceset/tau_hip_adduction_l	/forceset/tau_hip_rotation_l	/forceset/tau_knee_flexion_l	/forceset/tau_ankle_angle_l	/forceset/tau_subtalar_angle_l	/forceset/tau_lumbar_extension	lambda_cid13_p0	lambda_cid13_p1	lambda_cid13_p2	lambda_cid13_p3	lambda_cid13_p4	lambda_cid13_p5	lambda_cid14_p0	/jointset/ground_pelvis/pelvis_tilt/accel	/jointset/ground_pelvis/pelvis_tx/accel	/jointset/ground_pelvis/pelvis_ty/accel	/jointset/hip_l/hip_flexion_l/accel	/jointset/hip_l/hip_adduction_l/accel	/jointset/hip_l/hip_rotation_l/accel	/jointset/back/lumbar_extension/accel	/jointset/patellofemoral_l/patellar_flexion_l/accel	/jointset/knee_l/knee_flexion_l/accel	/jointset/knee_l/knee_adduction_l/accel	/jointset/knee_l/knee_rotation_l/accel	/jointset/ankle_l/ankle_angle_l/accel	/jointset/subtalar_l/subtalar_angle_l/accel	gamma_cid13_p0	gamma_cid13_p1	gamma_cid13_p2	gamma_cid13_p3	gamma_cid13_p4	gamma_cid13_p5	gamma_cid14_p0
1	-0.05044451808538167	-0.09373224863331246	0.4104703258971366	2.094393904459023	-0.2375177427958234	0.1600447638867331	-0.9599286478795561	2.094393404324998	2.094393404325015	0.1710351987725779	-0.1034344272248853	0.1912112743149321	0.1384401543490367	0.02087957409511745	-4.876214709776599e-05	0.0001883678444647352	1.077694823868647e-05	-0.07201803738808661	-0.1159777377499871	0.0004744904482357737	-8.751027731846568e-05	-8.75102773182441e-05	0.06602449113524428	-0.07416477759348652	-0.0128068038108935	-0.09422465532273822	-0.2657942737168749	-0.05092878896396415	-0.05570884836958941	-0.3680166798863432	0.1668302002805431	0.02092592591285031	0.333576585033074	7.380441123348804	0.1423167616060603	-12.49646015964003	2.513514466748492	-697.6195831576957	-57.72379827590753	-0.02284437282096716	0.03485816277654374	-0.05647918013311277	-0.08955954792879647	-0.05197781334920274	1.693540186529021	13.90010033622979	-0.08233499443358544	0.03804398546789995	0.0380439854678989	-11.9144225622021	-2.815732263936934	0.07029924050717874	1.918402019322415	3.366259631351405e-07	-1.597449859881043e-08	-1.427576035612513e-07	-6.19346543780249e-08	-1.3439583021762e-07	-1.934642578165391e-07	1.748295957863135e-07
1.01	-0.05023622848322902	-0.09373616836094786	0.410467937186398	2.094392510959955	-0.2381523515032155	0.1595235657658184	-0.9599270548355243	2.094393142776993	2.09439314277699	0.1711521084705938	-0.1042929369220021	0.1910854370634382	0.1375952029082309	0.02054673152104499	-0.0007975235357927334	-0.0006449935309026072	-0.0002233360853901244	-0.05464668420644959	0.003187869497348173	-5.454454982821319e-05	-1.389100579741228e-06	-1.389100579532844e-06	-0.03458599751433045	-0.09368617678641179	-0.01244657107092211	-0.07434905417120315	-0.2655820501991239	-0.0504616692650444	-0.05690195238759562	-0.3693534943425674	0.1662758724010989	0.02079963702533489	0.3332719055486744	7.08749839392082	0.2203458010258297	-12.47679116656142	3.80734041292844	-698.5651705274519	-57.75179023468672	-0.02287304434764934	-0.101747019858619	-0.09325233954439933	-0.07724826450441227	0.001110045507441512	1.797497565781156	9.642366168159148	-0.02298718807724702	-0.01183952081529419	-0.01183952081529538	-7.925695735862982	-0.9428244290425303	0.006265553598494244	2.084749581292693	1.372831758648453e-06	-7.130930474696062e-07	-3.591594145284327e-07	8.572260314228572e-07	-9.482861564683903e-07	-4.621045202848472e-06	1.225575598120535e-06
1.02	-0.05003814561728893	-0.09374941124673154	0.4104578100954731	2.09439082394936	-0.2386055337424313	0.1599375387672118	-0.9599277120286036	2.094392595299836	2.094392595299828	0.1705046465382086	-0.1052311567474626	0.1909606781919154	0.1369615295625851	0.01883822685259328	-0.001913393776755612	-0.001359308192821747	-4.792536393398873e-05	-0.035732743752808	0.07105648671163405	2.444302873084567e-05	-0.0001446961075279623	-0.0001446961075277618	-0.08684983494501883	-0.09010680326222532	-0.0125911278166955	-0.05196903629072237	-0.2653698266813728	-0.04999454956612456	-0.05809505640560163	-0.3706903087987918	0.1657215445216546	0.02067334813781958	0.332967226064275	6.799822884282831	0.2574567430424493	-12.40491413142138	4.995357507506879	-699.4462386929534	-58.25171153721568	-0.02288906752218372	-0.2402742560992762	-0.1299009505867062	-0.06575020523912044	0.02992693766765154	2.002057640929933	3.640702329619909	0.03926952089116777	-0.007841651269572036	-0.007841651269572026	-2.245092318424861	1.804422279485419	-0.0306586566417546	2.419285365111561	2.856447505849889e-07	-1.135069395310449e-07	-4.947804259751725e-08	1.631302443265121e-07	-1.808672584727726e-07	-8.314104952264016e-07	2.429928115425241e-07
1.03	-0.04986198090970993	-0.09377535763034969	0.4104413320928778	2.094391052948139	-0.238864938386204	0.1607083780563502	-0.9599262195396446	2.09439135204305	2.094391352043034	0.1696357587441812	-0.1059965777528494	0.1908328025235457	0.1365618728344628	0.01637263524126943	-0.003305797784005348	-0.001899371351565044	6.453289799172143e-05	-0.01651301001982247	0.07243275978695529	0.0002094041642536774	-9.565918405278355e-05	-9.565918405268019e-05	-0.07722806476820293	-0.05928873013133028	-0.0130682735620345	-0.02828275501138018	-0.2654259118318351	-0.05016771318515197	-0.05937671714562692	-0.3715904006147175	0.1653835471039165	0.02023795213363113	0.332927926856565	6.569153704800917	0.4349970904192975	-12.37389184069279	5.805444428799301	-700.4023124528621	-58.41830195572069	-0.02288905585220186	-0.2532352277327644	-0.1485111432535078	-0.04247093865616497	-0.002673180474252396	1.827198227269859	-3.215771296907588	-0.00158817953616585	0.01267892236287361	0.01267892236286072	4.020640091802252	4.273896231015831	-0.06904718344924439	2.295138575112677	-8.232095309843733e-07	4.993108485790478e-07	2.655715250772593e-07	-5.474273435136915e-07	6.026874479335318e-07	3.04207335170851e-06	-7.603382279835823e-07
1.04	-0.04971117884106093	-0.09381614825753219	0.4104205861452021	2.09439149083937	-0.2389430922950896	0.1611726078575625	-0.959924816957233	2.09439087966714	2.094390879667134	0.1691540543331358	-0.1063431387467026	0.1906975944677288	0.1363894467322873	0.01376569906659163	-0.004882242489628988	-0.002212897208888316	-6.14687725468119e-06	0.0005174032246428085	0.00973458912644355	6.461723014875102e-06	9.480067694577031e-06	9.48006769458328e-06	-0.009413158348689478	-0.006334800955463798	-0.01405760530614436	-0.006522911101352755	-0.2654819969822976	-0.05034087680417917	-0.0606583778856519	-0.3724904924306435	0.1650455496861785	0.01980255612944296	0.3328886276488552	6.332719325963811	0.6515846740695476	-12.39253980591813	6.690169785716252	-701.3494896582063	-58.39410961115173	-0.02289807012595446	-0.2685431687700595	-0.1667090902614909	-0.02044274495510547	-0.00670066976680608	1.564193543225881	-9.174186417546682	-0.03831119446111561	0.003378814384838549	0.003378814384838548	9.393534930114637	6.231593488479703	-0.1330958563959234	2.033997891248611	-1.594153749177382e-08	-6.218941250180216e-09	2.117122173003891e-08	-1.009328855834508e-08	1.312457861535179e-08	3.0275140549264e-08	-1.377472396438881e-08
1.05	-0.04958684880622062	-0.09387308911872062	0.4103971169813871	2.094390899405679	-0.2388544524825549	0.1608857885481631	-0.959926100154433	2.094391520200688	2.094391520200668	0.1694635984531037	-0.1061161479654122	0.1905515329072997	0.1364317855144611	0.01110380366259382	-0.006484696243718177	-0.002513577591262167	-7.964512763378841e-05	0.01756647645199505	-0.05782826557554773	-0.0001990739901576091	0.0001038711461436887	0.0001038711461435914	0.06291970364503609	0.04858944939955687	-0.01508872360409916	0.01531089230302643	-0.2652868356856493	-0.05024196789304394	-0.0595221732368288	-0.3718415687096051	0.1654994331941902	0.0202460776622639	0.3328236637130962	6.589658743193398	0.4174096178451562	-12.35912995756632	6.01491811204049	-700.5210232534449	-58.5862301223025	-0.02289025275530908	-0.2642555089282599	-0.1537094233254327	-0.03990724873764619	-0.002590374945529202	1.82865234783074	-4.156733502003459	-0.002070683665428208	0.01009034228589278	0.01009034228587917	4.892944886652831	4.651219232838683	-0.0780511485355937	2.306204711325402	8.512052770965011e-07	-5.466970928900055e-07	-2.407118900866157e-07	5.662373802343552e-07	-6.193482149442106e-07	-3.196688134925385e-06	7.874729845405852e-07
1.06	-0.04948898628196304	-0.0939453936985185	0.4103696357009767	2.094390589795048	-0.2385846443106786	0.1602014609906481	-0.959927517893567	2.094392628862562	2.094392628862547	0.1702444278035394	-0.1054342389958066	0.190397173897483	0.1367020889599373	0.008472196950050186	-0.007954986211517058	-0.003015320528011926	5.021773110436686e-05	0.03675107509298104	-0.06976706049666373	-2.044666013686368e-05	0.0001031057330308443	0.000103105733030645	0.08484388774481461	0.08464883670759514	-0.01571709518366745	0.03907002155911886	-0.2650916743890012	-0.05014305898190852	-0.05838596858800539	-0.371192644988567	0.1659533167022019	0.02068959919508511	0.3327586997773372	6.839979722810409	0.2282017943473804	-12.38292693776793	5.427276534562338	-699.6881967268304	-58.53921660435554	-0.0228929606926645	-0.2624854304792327	-0.1402763330034269	-0.06065525583029652	0.03397155205668126	1.991298625952632	1.950625538628367	0.03852141417748621	-0.01565248392753046	-0.01565248392753017	-0.6882006486747583	2.458620879083225	-0.05254651271862634	2.419063061591258	-1.220444247173505e-07	2.4432054761267e-08	2.663770049234229e-09	-6.600392952639598e-08	6.846721807428018e-08	2.726334964537891e-07	-9.769252701607481e-08
1.07	-0.04941492035916067	-0.09403128270665671	0.4103362239990967	2.094392377290747	-0.2381212954583351	0.1597189515585588	-0.9599268562225864	2.094392701519614	2.094392701519602	0.1709472210469681	-0.1045182584924121	0.1902380208024567	0.1372074594862862	0.006587945057511301	-0.009153437387944089	-0.003692710221595358	0.0002378691763037517	0.05567983185964895	-0.01740831357514025	5.168610738531795e-05	-3.746369204059999e-05	-3.746369204082342e-05	0.04695354763931544	0.09441259313356175	-0.01601064411851644	0.06160290536623904	-0.265120246797082	-0.05062798817457364	-0.05713801018832033	-0.3697444443196359	0.1669292861863571	0.02083099140741974	0.3329984016063028	7.280385154657582	0.1650141169093939	-12.45889939029152	4.047804295532869	-698.6605270828943	-58.00342275169029	-0.02287034956756958	-0.1146757348875661	-0.09938516177570922	-0.07495836031039989	0.000457095538968188	1.807834568310268	8.277371219674256	-0.0236050044763419	-0.005364278803240724	-0.005364278803243968	-6.653800663013913	-0.3848355866151095	-0.002573342611504218	2.110109575782839	-1.193187558254731e-06	6.546892502471797e-07	2.729148967783058e-07	-7.625309828272321e-07	8.265107482511867e-07	4.098140495218848e-06	-1.072560869427088e-06
1.08	-0.04935235308853293	-0.09412710735692187	0.4102953028934434	2.094393900331889	-0.2374758249650677	0.1600398039858368	-0.9599285060664488	2.094392947461015	2.094392947461024	0.1710082408950368	-0.1036286581469516	0.1900789693663332	0.1379261005578083	0.006172466515117809	-0.009942114636904899	-0.00451720128270443	-2.673186999642475e-06	0.07317540327777283	0.09090531137678039	-0.0004827496257317145	0.0001377626026372414	0.0001377626026369963	-0.04351079132724042	0.07937280512078877	-0.0156967634031044	0.08172413059377691	-0.2651488192051625	-0.05111291736723863	-0.05589005178863504	-0.368296243650705	0.1679052556705122	0.0209723836197545	0.3332381034352687	7.724810367634082	0.06965821600562519	-12.49380254822868	2.581069586108764	-697.5756348753165	-57.86863656571274	-0.02283764835478159	0.03126923954982044	-0.05832154751017117	-0.09007552933546067	-0.05166720964373975	1.704661556243829	13.1416011447078	-0.08279228595050248	0.04750666002241233	0.04750666002241311	-11.20300042088607	-2.502088008664693	0.06893941733355863	1.93673134567479	-3.576476313795114e-07	6.311720299103004e-08	1.238295147304848e-07	2.574151732670682e-08	1.546370429729199e-07	3.957669311797583e-07	-2.063474599310439e-07
